<?xml version="1.0" encoding="UTF-8" standalone="no"?>
<svg
   id="svg2"
   version="1.2"
   viewBox="0 0 390.46955 316.72544"
   height="95.017632"
   width="117.14086"
   sodipodi:docname="Singing_icon_purple.svg"
   inkscape:version="1.1.1 (3bf5ae0d25, 2021-09-20)"
   xmlns:inkscape="http://www.inkscape.org/namespaces/inkscape"
   xmlns:sodipodi="http://sodipodi.sourceforge.net/DTD/sodipodi-0.dtd"
   xmlns="http://www.w3.org/2000/svg"
   xmlns:svg="http://www.w3.org/2000/svg"
   xmlns:rdf="http://www.w3.org/1999/02/22-rdf-syntax-ns#"
   xmlns:cc="http://creativecommons.org/ns#">
  <sodipodi:namedview
     id="namedview16"
     pagecolor="#ffffff"
     bordercolor="#666666"
     borderopacity="1.0"
     inkscape:pageshadow="2"
     inkscape:pageopacity="0.0"
     inkscape:pagecheckerboard="0"
     showgrid="false"
     inkscape:zoom="6.6303484"
     inkscape:cx="58.594206"
     inkscape:cy="47.131762"
     inkscape:window-width="1920"
     inkscape:window-height="1007"
     inkscape:window-x="0"
     inkscape:window-y="0"
     inkscape:window-maximized="1"
     inkscape:current-layer="svg2" />
  <defs
     id="defs8" />
  <polyline
     transform="matrix(2.3741034,0,0,3.125,65.923531,106.77515)"
     style="font-style:normal;font-weight:400;font-size:medium;font-family:'MS Shell Dlg 2';vector-effect:none;fill:none;stroke:#000000;stroke-width:0.61192942;stroke-linecap:butt;stroke-linejoin:bevel;stroke-opacity:1"
     id="polyline14"
     points="0,0 108.932,0 " />
  <polyline
     transform="matrix(2.3741034,0,0,3.125,65.923531,106.77515)"
     style="font-style:normal;font-weight:400;font-size:medium;font-family:'MS Shell Dlg 2';vector-effect:none;fill:none;stroke:#000000;stroke-width:0.61192942;stroke-linecap:butt;stroke-linejoin:bevel;stroke-opacity:1"
     id="polyline16"
     points="0,6.66709 108.932,6.66709 " />
  <polyline
     transform="matrix(2.3741034,0,0,3.125,65.923531,106.77515)"
     style="font-style:normal;font-weight:400;font-size:medium;font-family:'MS Shell Dlg 2';vector-effect:none;fill:none;stroke:#000000;stroke-width:0.61192942;stroke-linecap:butt;stroke-linejoin:bevel;stroke-opacity:1"
     id="polyline18"
     points="0,13.3342 108.932,13.3342 " />
  <polyline
     transform="matrix(2.3741034,0,0,3.125,65.923531,106.77515)"
     style="font-style:normal;font-weight:400;font-size:medium;font-family:'MS Shell Dlg 2';vector-effect:none;fill:none;stroke:#000000;stroke-width:0.61192942;stroke-linecap:butt;stroke-linejoin:bevel;stroke-opacity:1"
     id="polyline20"
     points="0,20.0013 108.932,20.0013 " />
  <polyline
     transform="matrix(2.3741034,0,0,3.125,65.923531,106.77515)"
     style="font-style:normal;font-weight:400;font-size:medium;font-family:'MS Shell Dlg 2';vector-effect:none;fill:none;stroke:#000000;stroke-width:0.61192942;stroke-linecap:butt;stroke-linejoin:bevel;stroke-opacity:1"
     id="polyline22"
     points="0,26.6683 108.932,26.6683 " />
  <path
     style="font-style:normal;font-weight:400;font-size:medium;font-family:MScore;vector-effect:non-scaling-stroke;fill:#000000;fill-opacity:1;fill-rule:nonzero;stroke:none;stroke-width:1.00006402"
     id="path28"
     d="m 137.96827,169.49791 c -8e-4,-5.85951 -2.01083,-10.98656 -6.02999,-15.38124 -3.98065,-4.39459 -9.17979,-6.61903 -15.5974,-6.67333 -1.5391,-5.37124 -3.46292,-11.50204 -5.77157,-18.39238 4.89882,-6.07649 8.62325,-11.62404 11.17352,-16.64266 2.53676,-5.01852 3.80524,-10.37617 3.80514,-16.072932 10e-5,-4.231871 -0.98496,-8.897769 -2.95509,-13.997796 -1.96962,-5.099926 -4.05366,-9.236791 -6.252,-12.410694 -2.19864,-3.174103 -3.73774,-4.761205 -4.61729,-4.761205 -0.32972,0 -0.96187,0.394026 -1.89633,1.180076 -0.93445,0.78705 -2.02012,1.980127 -3.2569,3.581129 -1.23818,1.600503 -2.43086,3.43152 -3.57793,5.493252 -1.09427,2.061632 -2.01923,4.557391 -2.77478,7.487179 -0.755648,2.929787 -1.133373,5.913778 -1.133373,8.951973 0,5.425547 0.429928,10.322058 1.289683,14.689538 0.84695,4.36748 2.26654,9.61662 4.25887,15.74741 -0.23741,0.32552 -1.37049,1.81752 -3.39912,4.47609 -2.017924,2.65847 -3.222601,4.24537 -3.614126,4.7608 l -3.173783,4.31328 c -1.736082,2.36005 -2.834682,4.02835 -3.295831,5.00502 -0.45996,0.97656 -1.24307,2.52286 -2.349331,4.63879 -1.106501,2.11594 -1.848668,3.87915 -2.226492,5.28984 -0.377824,1.41059 -0.755656,3.0925 -1.133485,5.04563 -0.37783,1.95322 -0.566744,3.87924 -0.566742,5.77816 -0.0021,8.1498 2.835849,15.08481 8.513963,20.80504 2.840412,2.89238 5.962611,5.06122 9.366427,6.50641 3.40382,1.4453 7.13566,2.16784 11.19552,2.16774 1.81591,0 3.90075,-0.18991 6.2547,-0.56973 0.0674,0.87305 0.0999,2.18894 0.0974,3.94775 -1e-4,2.85548 -0.13691,6.04478 -0.41053,9.56791 -0.38303,4.44658 -1.81922,8.27933 -4.30868,11.49814 -2.48946,3.1541 -5.62176,4.7311 -9.3969,4.7311 -2.22874,0 -4.29297,-0.50353 -6.192794,-1.5108 -1.900422,-1.00536 -3.447821,-2.36075 -4.642398,-4.06606 0.868756,0.32532 1.71031,0.48793 2.524762,0.48793 2.17184,0 4.03156,-0.77255 5.57896,-2.31755 1.5474,-1.54499 2.32115,-3.40171 2.32115,-5.57015 0,-2.38525 -0.76015,-4.43169 -2.28035,-6.13929 -1.5204,-1.70781 -3.39362,-2.56167 -5.61976,-2.56177 -2.49756,1e-4 -4.68304,0.85396 -6.55627,2.56177 -1.873219,1.7076 -2.809839,3.75404 -2.809829,6.13929 0,4.6687 1.737481,8.57025 5.212453,11.70445 3.474503,3.2253 7.629166,4.84301 12.464076,4.85301 4.7053,-0.0172 8.63095,-1.93973 11.77696,-5.76747 3.149,-3.76704 4.97081,-8.31243 5.46535,-13.63607 0.27421,-3.73954 0.41132,-7.03685 0.41132,-9.89204 0,-2.25234 -0.0274,-3.89415 -0.0823,-4.92531 3.95695,-1.35639 7.30746,-3.85455 10.05164,-7.49448 2.77298,-3.59584 4.15947,-7.80443 4.15947,-12.62575 m -14.37562,16.6189 c -0.60394,-9.06296 -2.22065,-18.94297 -4.85021,-29.64009 4.20996,0.65114 7.56718,2.52286 10.07184,5.61542 2.51416,3.09251 3.77114,6.56482 3.77114,10.41691 1e-4,3.1941 -0.86915,6.00509 -2.60767,8.43293 -1.73751,2.47196 -3.86584,4.19687 -6.3851,5.17483 m -13.63168,-6.11209 c 0.49243,0 0.93016,-0.18561 1.31319,-0.55663 0.38292,-0.37105 0.57443,-0.78185 0.57443,-1.23242 0,-0.45056 -0.21881,-0.88789 -0.65654,-1.31199 -4.97362,-2.49572 -7.45788,-5.96802 -7.45257,-10.41691 -10e-4,-2.65848 1.01926,-4.96431 3.06189,-6.91749 2.05173,-1.95319 4.80101,-3.03826 8.24793,-3.25527 2.73567,11.01647 4.40438,21.24955 5.00622,30.69916 -1.91492,0.32602 -3.93935,0.48903 -6.07309,0.48903 -5.85277,0 -11.18111,-1.92872 -15.984822,-5.78597 -4.751194,-3.80527 -7.128676,-8.31207 -7.132467,-13.52044 0,-3.36379 0.417727,-6.59195 1.253171,-9.68444 0.835443,-3.0926 2.236823,-6.28 4.204189,-9.56241 1.969926,-3.28241 3.703939,-5.94088 5.201829,-7.97552 l 6.47612,-8.58574 4.64029,15.29977 c -4.39558,0.70535 -7.87,2.64497 -10.42316,5.81888 -2.555566,3.1739 -3.833347,6.74114 -3.833347,10.70174 0,2.54996 0.530133,4.92362 1.590401,7.12094 1.060266,2.19732 2.297246,3.87922 3.710936,5.04569 1.41129,1.14983 2.70037,2.04177 3.86715,2.67584 1.16687,0.63606 1.96733,0.95418 2.40155,0.95418 h 0.007 m 6.2617,-102.712771 c 1.35679,2.387153 2.23865,4.36748 2.64577,5.940881 0.47043,1.5734 0.69985,3.716437 0.68835,6.429211 -1e-4,5.099926 -1.07207,9.982839 -3.21591,14.648739 -2.14374,4.6659 -5.19443,9.54881 -9.15208,14.64884 -2.69348,-8.51805 -4.04016,-14.56744 -4.04016,-18.14827 0,-4.774401 1.16807,-9.250387 3.50422,-13.428055 2.33615,-4.177567 5.53796,-7.541382 9.60562,-10.091346 h -0.0358" />
  <path
     style="font-style:normal;font-weight:400;font-size:medium;font-family:MScore;vector-effect:non-scaling-stroke;fill:#000000;fill-opacity:1;fill-rule:nonzero;stroke:none;stroke-width:1.00006402"
     id="path34"
     d="m 210.16123,111.28504 h 1.17417 c 2.67865,2.76708 4.86531,5.14073 6.55996,7.12096 1.69466,1.98032 3.36198,4.55739 5.00193,7.73129 1.6401,3.17391 2.46016,6.09009 2.46026,8.74866 -1e-4,5.15413 -1.17548,10.47117 -3.52623,15.95082 -0.10931,0.65115 0.0547,1.19368 0.49203,1.62771 0.43733,0.43403 0.92936,0.65104 1.476,0.65104 0.65594,0 1.17537,-0.32552 1.5582,-0.97656 2.35835,-5.96809 3.53752,-11.71905 3.53752,-17.25301 0,-3.03829 -0.60324,-6.13079 -1.80991,-9.27759 -1.20658,-3.1468 -2.68447,-6.10369 -4.43379,-8.87067 l -5.16601,-8.21962 c -1.69466,-2.71268 -3.14331,-5.65607 -4.34598,-8.82994 -1.20266,-3.173903 -1.80399,-6.25286 -1.80398,-9.236872 h -1.17417 v 20.833782" />
  <polyline
     transform="matrix(3.125,0,0,3.125,210.02219,154.94815)"
     style="font-style:normal;font-weight:400;font-size:medium;font-family:MScore;vector-effect:none;fill:none;stroke:#000000;stroke-width:0.86672097;stroke-linecap:round;stroke-linejoin:bevel;stroke-opacity:1"
     id="polyline38"
     points="0,0 0,-20.3346 " />
  <path
     style="font-style:normal;font-weight:400;font-size:medium;font-family:MScore;vector-effect:non-scaling-stroke;fill:#000000;fill-opacity:1;fill-rule:nonzero;stroke:none;stroke-width:1.00006402"
     id="path44"
     d="m 202.20905,147.50551 c -4.44898,0 -8.61299,1.62878 -12.49221,4.88627 -3.87921,3.2575 -5.81882,6.7593 -5.81882,10.50541 0,2.28025 0.84095,4.11259 2.52285,5.49702 1.6819,1.38442 3.87921,2.07667 6.59195,2.07667 4.44893,0 8.6129,-1.62877 12.49214,-4.88626 3.87925,-3.25748 5.81888,-6.75929 5.81888,-10.50541 0,-2.28024 -0.84096,-4.11258 -2.52287,-5.49701 -1.6819,-1.38445 -3.87924,-2.07669 -6.59192,-2.07669" />
  <polyline
     transform="matrix(3.125,0,0,3.125,321.21248,106.77515)"
     style="font-style:normal;font-weight:400;font-size:medium;font-family:MScore;vector-effect:none;fill:none;stroke:#000000;stroke-width:1.06673002;stroke-linecap:butt;stroke-linejoin:bevel;stroke-opacity:1"
     id="polyline66"
     points="0.533367,0 0.533367,26.6683 " />
  <path
     stroke-miterlimit="10"
     d="m 379.8078,145.16302 c 0,40.74989 -24.5032,76.70567 -64.18773,101.74155 -5.32678,3.72875 1.59804,55.66488 1.59804,55.66488 l -56.19756,-32.22704 c 0,0 -43.14694,9.32187 -66.31845,9.32187 -101.74155,0 -184.040344,-59.9263 -184.040344,-134.50126 0,-74.574962 82.831473,-134.501269 184.040344,-134.501269 102.27423,0 185.1057,59.926307 185.1057,134.501269 z"
     id="path17"
     style="fill:none;stroke:#000000;stroke-width:7.99017429;stroke-miterlimit:10" />
  <metadata
     id="metadata497">
    <rdf:RDF>
      <cc:Work
         rdf:about="" />
    </rdf:RDF>
  </metadata>
  <path
     style="fill:#d35f5f;stroke-width:0.150822"
     d="m 30.21322,66.823112 c -1.223325,-0.382511 -2.548491,-1.503231 -3.147791,-2.662147 -0.342841,-0.662982 -0.466328,-2.255296 -0.22086,-2.847908 0.429141,-1.036037 1.849387,-1.802747 2.955133,-1.595308 1.12852,0.211711 2.037102,1.64872 1.809506,2.861907 -0.214852,1.145261 -1.480956,2.036573 -2.595838,1.827421 -0.49469,-0.0928 -0.51772,-0.07983 -0.364962,0.205602 0.08968,0.167561 0.450476,0.500061 0.801778,0.73889 2.396181,1.629015 5.071453,0.673968 6.144294,-2.193456 0.329984,-0.881962 0.592306,-2.996867 0.598822,-4.827845 l 0.0039,-1.093457 h -8.144368 c -7.138891,0 -8.144369,-0.02793 -8.144369,-0.226232 0,-0.197091 0.731648,-0.226233 5.679901,-0.226233 h 5.679901 l -0.96307,-0.481247 C 28.828123,55.564996 27.186071,53.8602 26.450873,52.301496 l -0.584962,-1.240184 -2.978728,-0.0041 c -2.54539,-0.0035 -2.978727,-0.03701 -2.978727,-0.230326 0,-0.193369 0.427647,-0.226233 2.943896,-0.226233 h 2.943895 L 25.687498,50.1859 c -0.211896,-0.808149 -0.09545,-3.102167 0.218193,-4.298417 l 0.306461,-1.168868 h -3.151848 c -2.701095,0 -3.151848,-0.03235 -3.151848,-0.226232 0,-0.194169 0.465488,-0.226232 3.284464,-0.226232 h 3.284465 l 0.619973,-1.244279 c 0.340985,-0.684353 1.136184,-1.956911 1.767108,-2.827906 l 1.147136,-1.583627 -5.051573,-0.03971 c -4.351844,-0.03421 -5.051573,-0.07077 -5.051573,-0.263938 0,-0.194144 0.707273,-0.224227 5.271849,-0.224227 h 5.271849 l 0.518355,-0.678869 0.518356,-0.678871 -0.34392,-1.114689 C 30.955789,34.996954 30.679293,33.978986 30.53051,33.347881 L 30.259996,32.20042 h -5.17577 c -4.500137,0 -5.17577,-0.02953 -5.17577,-0.226233 0,-0.196675 0.672273,-0.226232 5.145526,-0.226232 h 5.145527 l -0.104798,-0.339349 c -0.05764,-0.186642 -0.142129,-1.399796 -0.187755,-2.695897 -0.09908,-2.814654 0.114255,-4.038063 1.016829,-5.831087 0.675605,-1.342137 1.948738,-2.978288 2.43842,-3.133707 0.272947,-0.08663 0.440303,0.01451 0.89216,0.539151 1.202156,1.395807 2.737451,4.754678 3.157417,6.907702 0.181531,0.930642 0.124597,3.464923 -0.09467,4.213838 l -0.09935,0.339349 h 12.75809 12.758091 l 0.04163,-2.30003 c 0.03397,-1.876807 0.0814,-2.30003 0.25777,-2.30003 0.149466,0 0.27309,0.325663 0.400771,1.055751 0.201943,1.154725 0.464134,1.955871 0.954967,2.917983 l 0.319527,0.626326 H 80.994284 97.279956 V 44.492383 57.236811 H 67.214464 37.148969 l -0.100361,2.208743 c -0.102337,2.252218 -0.353554,3.602343 -0.85213,4.579632 -0.979155,1.919302 -2.580375,3.023001 -4.359497,3.004942 -0.546676,-0.0055 -1.277368,-0.09871 -1.623761,-0.207016 z M 96.375026,53.918735 V 51.053124 H 68.864231 41.353435 l -0.1021,0.74235 c -0.230281,1.674341 -1.612474,3.660428 -3.168872,4.553386 l -0.754108,0.432656 29.523336,0.0014 29.523335,0.0015 z m -60.799972,2.318883 c 0.414435,-0.08289 0.471317,-0.154766 0.471317,-0.595561 0,-0.574206 -0.420768,-3.928155 -0.54259,-4.324995 -0.07211,-0.234894 -0.312686,-0.263938 -2.186236,-0.263938 h -2.105212 l 0.229167,0.443161 c 0.206497,0.399321 0.572315,0.747798 1.73926,1.656812 0.35788,0.278777 0.363783,0.307205 0.116086,0.559026 -0.24208,0.246108 -0.296664,0.247984 -0.754109,0.02591 -0.962103,-0.467061 -1.782511,-1.189892 -2.190843,-1.930274 l -0.413799,-0.750292 -1.319689,-0.0022 c -1.269096,-0.0021 -1.319633,0.01084 -1.318216,0.337175 0.005,1.152144 1.607242,3.111805 3.267417,3.996299 1.476056,0.786402 3.556404,1.139055 5.007447,0.848847 z m 2.396222,-0.802089 c 1.157633,-0.838585 1.845636,-2.171394 1.845636,-3.575391 v -0.807014 h -1.701408 -1.701408 l 0.26101,1.772154 c 0.143557,0.974685 0.264427,2.060601 0.268603,2.413147 0.0092,0.776356 0.18214,0.809529 1.027567,0.197104 z m -8.320121,-6.079148 c -0.0045,-1.844719 0.706939,-3.233355 2.144338,-4.185448 l 0.697697,-0.462136 -1.880834,0.04262 -1.880834,0.04261 -0.480267,0.976207 c -0.54892,1.115751 -0.882164,2.34502 -1.033503,3.81238 l -0.104998,1.018046 h 1.270719 1.27072 l -0.003,-1.244278 z m 5.400398,-0.452465 c -0.47832,-2.258682 -0.405662,-2.129577 -1.133034,-2.013267 -1.67148,0.267282 -2.849262,1.517221 -2.849262,3.023823 v 0.686187 h 2.170807 2.170807 z m 4.546814,1.281984 c -0.162866,-0.672659 -1.094075,-1.96406 -1.768575,-2.452666 -0.60173,-0.435891 -2.057168,-0.981286 -2.210219,-0.828234 -0.06083,0.06083 0.412995,2.463115 0.676867,3.431721 0.06295,0.231091 0.279137,0.263938 1.737127,0.263938 h 1.665225 z m 16.234966,0.06892 c -1.194298,-1.271269 -0.433911,-3.390951 1.752498,-4.88532 l 0.952306,-0.650885 -10.604891,0.0014 -10.604891,0.0014 0.768723,0.440914 c 1.513759,0.868238 2.782499,2.725885 3.102504,4.54258 l 0.157777,0.895835 h 7.400435 7.400436 z M 96.375026,47.659637 V 44.718615 H 82.124406 67.873785 l -0.225115,0.538778 c -0.177666,0.425213 -0.297307,0.528531 -0.567605,0.49017 -0.281571,-0.03996 -0.338534,-0.135795 -0.320252,-0.538777 l 0.02224,-0.490171 h -1.700534 -1.700533 l -0.06684,1.31969 c -0.04805,0.94854 -0.15585,1.489357 -0.383321,1.922976 -0.359849,0.685967 -1.517693,1.854545 -2.301522,2.322861 l -0.527876,0.315389 18.136302,6.03e-4 18.136302,5.25e-4 z m -33.633225,-2.7902 c 0,-0.08295 -0.07188,-0.150822 -0.159723,-0.150822 -0.08785,0 -0.117777,0.06787 -0.06651,0.150822 0.05127,0.08295 0.123143,0.150822 0.159723,0.150822 0.03658,0 0.06651,-0.06787 0.06651,-0.150822 z M 33.784047,44.111555 c 0,-0.231339 -1.235084,-4.278834 -1.341156,-4.395104 -0.09975,-0.109336 -2.377951,2.870729 -2.988133,3.908708 l -0.376811,0.640992 h 2.35305 c 1.506438,0 2.35305,-0.05562 2.35305,-0.154596 z M 62.741801,41.400539 V 38.534928 H 47.986418 c -8.115462,0 -14.791277,0.03589 -14.835146,0.07976 -0.04387,0.04387 0.290091,1.248558 0.742133,2.677084 0.452043,1.428527 0.847779,2.68216 0.879412,2.78585 0.04547,0.149049 2.979884,0.188527 14.01325,0.188527 h 13.955734 z m 4.606395,1.696744 c 0.312706,-1.316581 0.36537,-3.512791 0.09946,-4.147595 l -0.173737,-0.41476 h -1.964414 -1.964414 v 2.865611 2.865612 h 1.862742 1.862744 z m 29.02683,-1.696744 V 38.534928 H 82.345741 68.316455 l 0.11599,0.41476 c 0.259488,0.927888 0.03199,4.07563 -0.370329,5.124064 -0.05953,0.155144 2.674491,0.192399 14.11954,0.192399 h 14.19337 z M 62.741801,35.141442 V 32.20042 H 49.934881 37.12796 l -0.604958,1.244278 c -0.498438,1.02519 -1.565681,2.731392 -2.719646,4.347901 -0.203711,0.285365 0.01924,0.289864 14.365761,0.289864 h 14.572684 z m 3.978729,2.224619 c -0.561527,-0.986428 -1.370774,-2.045311 -2.449381,-3.20496 l -0.91183,-0.980341 -0.0071,2.450852 -0.0071,2.450851 h 1.891627 1.891629 z M 96.375026,35.141442 V 32.20042 h -15.68545 c -8.626998,0 -15.68545,0.03305 -15.68545,0.07343 0,0.04039 0.516424,0.897051 1.147609,1.903694 0.999311,1.593746 1.560654,2.661144 1.914786,3.640978 0.08992,0.248807 0.904021,0.263937 14.201949,0.263937 h 14.106556 z m -62.24293,-2.185265 0.423459,-0.755757 h -1.667738 c -1.534254,0 -1.667738,0.02279 -1.667738,0.284771 0,0.239943 0.590903,2.47334 0.839599,3.173379 0.08423,0.237079 1.350806,-1.414519 2.072418,-2.702393 z m 0.990579,-1.952132 c 0.589991,-1.371474 0.804935,-2.669616 0.738383,-4.459437 -0.05159,-1.387385 -0.126542,-1.801038 -0.457763,-2.526262 -0.217842,-0.476974 -0.461587,-0.867225 -0.541653,-0.867225 -0.275626,0 -1.660495,1.19797 -2.196745,1.900275 -0.673207,0.881673 -1.248002,2.047024 -1.527354,3.096591 -0.218487,0.820888 -0.302987,3.314993 -0.11856,3.49942 0.0553,0.0553 0.929251,0.100548 1.942109,0.100548 h 1.84156 z"
     id="path92"
     transform="scale(3.3333334)" />
  <path
     style="fill:#d35f5f;stroke-width:0.150822"
     d="m 95.599868,92.303611 c -0.467813,-0.275605 -4.584964,-2.641852 -9.149225,-5.258327 l -8.298658,-4.757226 -2.614861,0.508802 c -3.373948,0.656507 -7.528357,1.338995 -10.759231,1.767529 -2.197148,0.291424 -3.232874,0.339578 -7.239438,0.336587 C 52.582573,84.897281 50.618106,84.74438 46.07601,84.008843 23.70594,80.386295 6.4637453,66.892758 2.8084831,50.148194 -0.4537021,35.204295 7.5986778,20.141435 23.829819,10.82548 43.395202,-0.40418329 70.720922,-0.85423219 91.177809,9.7162724 c 3.372221,1.7424976 5.931402,3.3910196 9.144511,5.8905256 1.99649,1.553097 6.07173,5.720857 7.62941,7.802633 8.97514,11.994918 9.48465,26.154123 1.37735,38.276619 -1.68456,2.518858 -3.23725,4.361303 -5.6578,6.713651 -2.40631,2.338508 -3.946724,3.575518 -7.630054,6.127234 l -0.683498,0.473509 -0.109151,1.310332 c -0.177253,2.127914 0.176544,7.268816 0.912148,13.254064 0.212526,1.729222 0.364654,3.165603 0.338062,3.191957 -0.02659,0.02635 -0.431107,-0.17758 -0.898919,-0.453186 z m -1.858204,-4.035248 c -0.132004,-0.596146 -0.52331,-5.074754 -0.688531,-7.88043 -0.243931,-4.142283 0.01478,-6.245033 0.865511,-7.034611 0.23116,-0.214544 0.963248,-0.749588 1.626863,-1.188989 C 103.19444,67.099737 108.85463,60.134967 111.29278,52.787573 116.55017,36.94436 107.92538,20.576049 89.438635,11.312326 77.779773,5.4700605 63.118517,3.1397812 49.156176,4.9097784 30.10518,7.324861 14.185545,16.964994 7.6247636,30.05912 c -1.4028708,2.799876 -2.1861871,5.065384 -2.815007,8.141566 -0.3883996,1.90005 -0.5479275,6.454547 -0.2998684,8.561202 1.1339113,9.629808 6.7499258,18.247342 16.3110208,25.028564 7.450547,5.284312 17.800721,9.09899 28.196123,10.392009 8.357882,1.039587 15.34317,0.588527 26.832077,-1.732616 1.195007,-0.241432 2.314858,-0.437695 2.488557,-0.436143 0.1737,0.0016 3.67537,1.933983 7.781489,4.294287 4.106119,2.360304 7.517866,4.293321 7.58166,4.295592 0.06379,0.0023 0.08218,-0.148576 0.04085,-0.335218 z"
     id="path131"
     transform="scale(3.3333334)" />
</svg>
