<?xml version="1.0" encoding="UTF-8" standalone="no"?>
<svg
   id="svg2"
   version="1.2"
   viewBox="0 0 390.46955 316.72544"
   height="95.017632"
   width="117.14086"
   sodipodi:docname="Singing_icon_blue.svg"
   inkscape:version="1.1.1 (3bf5ae0d25, 2021-09-20)"
   xmlns:inkscape="http://www.inkscape.org/namespaces/inkscape"
   xmlns:sodipodi="http://sodipodi.sourceforge.net/DTD/sodipodi-0.dtd"
   xmlns="http://www.w3.org/2000/svg"
   xmlns:svg="http://www.w3.org/2000/svg"
   xmlns:rdf="http://www.w3.org/1999/02/22-rdf-syntax-ns#"
   xmlns:cc="http://creativecommons.org/ns#">
  <sodipodi:namedview
     id="namedview16"
     pagecolor="#ffffff"
     bordercolor="#666666"
     borderopacity="1.0"
     inkscape:pageshadow="2"
     inkscape:pageopacity="0.0"
     inkscape:pagecheckerboard="0"
     showgrid="false"
     inkscape:zoom="6.6303484"
     inkscape:cx="58.594206"
     inkscape:cy="47.131762"
     inkscape:window-width="1920"
     inkscape:window-height="1007"
     inkscape:window-x="0"
     inkscape:window-y="0"
     inkscape:window-maximized="1"
     inkscape:current-layer="svg2" />
  <defs
     id="defs8" />
  <polyline
     transform="matrix(2.3741034,0,0,3.125,65.923531,106.77515)"
     style="font-style:normal;font-weight:400;font-size:medium;font-family:'MS Shell Dlg 2';vector-effect:none;fill:none;stroke:#000000;stroke-width:0.61192942;stroke-linecap:butt;stroke-linejoin:bevel;stroke-opacity:1"
     id="polyline14"
     points="0,0 108.932,0 " />
  <polyline
     transform="matrix(2.3741034,0,0,3.125,65.923531,106.77515)"
     style="font-style:normal;font-weight:400;font-size:medium;font-family:'MS Shell Dlg 2';vector-effect:none;fill:none;stroke:#000000;stroke-width:0.61192942;stroke-linecap:butt;stroke-linejoin:bevel;stroke-opacity:1"
     id="polyline16"
     points="0,6.66709 108.932,6.66709 " />
  <polyline
     transform="matrix(2.3741034,0,0,3.125,65.923531,106.77515)"
     style="font-style:normal;font-weight:400;font-size:medium;font-family:'MS Shell Dlg 2';vector-effect:none;fill:none;stroke:#000000;stroke-width:0.61192942;stroke-linecap:butt;stroke-linejoin:bevel;stroke-opacity:1"
     id="polyline18"
     points="0,13.3342 108.932,13.3342 " />
  <polyline
     transform="matrix(2.3741034,0,0,3.125,65.923531,106.77515)"
     style="font-style:normal;font-weight:400;font-size:medium;font-family:'MS Shell Dlg 2';vector-effect:none;fill:none;stroke:#000000;stroke-width:0.61192942;stroke-linecap:butt;stroke-linejoin:bevel;stroke-opacity:1"
     id="polyline20"
     points="0,20.0013 108.932,20.0013 " />
  <polyline
     transform="matrix(2.3741034,0,0,3.125,65.923531,106.77515)"
     style="font-style:normal;font-weight:400;font-size:medium;font-family:'MS Shell Dlg 2';vector-effect:none;fill:none;stroke:#000000;stroke-width:0.61192942;stroke-linecap:butt;stroke-linejoin:bevel;stroke-opacity:1"
     id="polyline22"
     points="0,26.6683 108.932,26.6683 " />
  <path
     style="font-style:normal;font-weight:400;font-size:medium;font-family:MScore;vector-effect:non-scaling-stroke;fill:#000000;fill-opacity:1;fill-rule:nonzero;stroke:none;stroke-width:1.00006402"
     id="path28"
     d="m 137.96827,169.49791 c -8e-4,-5.85951 -2.01083,-10.98656 -6.02999,-15.38124 -3.98065,-4.39459 -9.17979,-6.61903 -15.5974,-6.67333 -1.5391,-5.37124 -3.46292,-11.50204 -5.77157,-18.39238 4.89882,-6.07649 8.62325,-11.62404 11.17352,-16.64266 2.53676,-5.01852 3.80524,-10.37617 3.80514,-16.072932 10e-5,-4.231871 -0.98496,-8.897769 -2.95509,-13.997796 -1.96962,-5.099926 -4.05366,-9.236791 -6.252,-12.410694 -2.19864,-3.174103 -3.73774,-4.761205 -4.61729,-4.761205 -0.32972,0 -0.96187,0.394026 -1.89633,1.180076 -0.93445,0.78705 -2.02012,1.980127 -3.2569,3.581129 -1.23818,1.600503 -2.43086,3.43152 -3.57793,5.493252 -1.09427,2.061632 -2.01923,4.557391 -2.77478,7.487179 -0.755648,2.929787 -1.133373,5.913778 -1.133373,8.951973 0,5.425547 0.429928,10.322058 1.289683,14.689538 0.84695,4.36748 2.26654,9.61662 4.25887,15.74741 -0.23741,0.32552 -1.37049,1.81752 -3.39912,4.47609 -2.017924,2.65847 -3.222601,4.24537 -3.614126,4.7608 l -3.173783,4.31328 c -1.736082,2.36005 -2.834682,4.02835 -3.295831,5.00502 -0.45996,0.97656 -1.24307,2.52286 -2.349331,4.63879 -1.106501,2.11594 -1.848668,3.87915 -2.226492,5.28984 -0.377824,1.41059 -0.755656,3.0925 -1.133485,5.04563 -0.37783,1.95322 -0.566744,3.87924 -0.566742,5.77816 -0.0021,8.1498 2.835849,15.08481 8.513963,20.80504 2.840412,2.89238 5.962611,5.06122 9.366427,6.50641 3.40382,1.4453 7.13566,2.16784 11.19552,2.16774 1.81591,0 3.90075,-0.18991 6.2547,-0.56973 0.0674,0.87305 0.0999,2.18894 0.0974,3.94775 -1e-4,2.85548 -0.13691,6.04478 -0.41053,9.56791 -0.38303,4.44658 -1.81922,8.27933 -4.30868,11.49814 -2.48946,3.1541 -5.62176,4.7311 -9.3969,4.7311 -2.22874,0 -4.29297,-0.50353 -6.192794,-1.5108 -1.900422,-1.00536 -3.447821,-2.36075 -4.642398,-4.06606 0.868756,0.32532 1.71031,0.48793 2.524762,0.48793 2.17184,0 4.03156,-0.77255 5.57896,-2.31755 1.5474,-1.54499 2.32115,-3.40171 2.32115,-5.57015 0,-2.38525 -0.76015,-4.43169 -2.28035,-6.13929 -1.5204,-1.70781 -3.39362,-2.56167 -5.61976,-2.56177 -2.49756,1e-4 -4.68304,0.85396 -6.55627,2.56177 -1.873219,1.7076 -2.809839,3.75404 -2.809829,6.13929 0,4.6687 1.737481,8.57025 5.212453,11.70445 3.474503,3.2253 7.629166,4.84301 12.464076,4.85301 4.7053,-0.0172 8.63095,-1.93973 11.77696,-5.76747 3.149,-3.76704 4.97081,-8.31243 5.46535,-13.63607 0.27421,-3.73954 0.41132,-7.03685 0.41132,-9.89204 0,-2.25234 -0.0274,-3.89415 -0.0823,-4.92531 3.95695,-1.35639 7.30746,-3.85455 10.05164,-7.49448 2.77298,-3.59584 4.15947,-7.80443 4.15947,-12.62575 m -14.37562,16.6189 c -0.60394,-9.06296 -2.22065,-18.94297 -4.85021,-29.64009 4.20996,0.65114 7.56718,2.52286 10.07184,5.61542 2.51416,3.09251 3.77114,6.56482 3.77114,10.41691 1e-4,3.1941 -0.86915,6.00509 -2.60767,8.43293 -1.73751,2.47196 -3.86584,4.19687 -6.3851,5.17483 m -13.63168,-6.11209 c 0.49243,0 0.93016,-0.18561 1.31319,-0.55663 0.38292,-0.37105 0.57443,-0.78185 0.57443,-1.23242 0,-0.45056 -0.21881,-0.88789 -0.65654,-1.31199 -4.97362,-2.49572 -7.45788,-5.96802 -7.45257,-10.41691 -10e-4,-2.65848 1.01926,-4.96431 3.06189,-6.91749 2.05173,-1.95319 4.80101,-3.03826 8.24793,-3.25527 2.73567,11.01647 4.40438,21.24955 5.00622,30.69916 -1.91492,0.32602 -3.93935,0.48903 -6.07309,0.48903 -5.85277,0 -11.18111,-1.92872 -15.984822,-5.78597 -4.751194,-3.80527 -7.128676,-8.31207 -7.132467,-13.52044 0,-3.36379 0.417727,-6.59195 1.253171,-9.68444 0.835443,-3.0926 2.236823,-6.28 4.204189,-9.56241 1.969926,-3.28241 3.703939,-5.94088 5.201829,-7.97552 l 6.47612,-8.58574 4.64029,15.29977 c -4.39558,0.70535 -7.87,2.64497 -10.42316,5.81888 -2.555566,3.1739 -3.833347,6.74114 -3.833347,10.70174 0,2.54996 0.530133,4.92362 1.590401,7.12094 1.060266,2.19732 2.297246,3.87922 3.710936,5.04569 1.41129,1.14983 2.70037,2.04177 3.86715,2.67584 1.16687,0.63606 1.96733,0.95418 2.40155,0.95418 h 0.007 m 6.2617,-102.712771 c 1.35679,2.387153 2.23865,4.36748 2.64577,5.940881 0.47043,1.5734 0.69985,3.716437 0.68835,6.429211 -1e-4,5.099926 -1.07207,9.982839 -3.21591,14.648739 -2.14374,4.6659 -5.19443,9.54881 -9.15208,14.64884 -2.69348,-8.51805 -4.04016,-14.56744 -4.04016,-18.14827 0,-4.774401 1.16807,-9.250387 3.50422,-13.428055 2.33615,-4.177567 5.53796,-7.541382 9.60562,-10.091346 h -0.0358" />
  <path
     style="font-style:normal;font-weight:400;font-size:medium;font-family:MScore;vector-effect:non-scaling-stroke;fill:#000000;fill-opacity:1;fill-rule:nonzero;stroke:none;stroke-width:1.00006402"
     id="path34"
     d="m 210.16123,111.28504 h 1.17417 c 2.67865,2.76708 4.86531,5.14073 6.55996,7.12096 1.69466,1.98032 3.36198,4.55739 5.00193,7.73129 1.6401,3.17391 2.46016,6.09009 2.46026,8.74866 -1e-4,5.15413 -1.17548,10.47117 -3.52623,15.95082 -0.10931,0.65115 0.0547,1.19368 0.49203,1.62771 0.43733,0.43403 0.92936,0.65104 1.476,0.65104 0.65594,0 1.17537,-0.32552 1.5582,-0.97656 2.35835,-5.96809 3.53752,-11.71905 3.53752,-17.25301 0,-3.03829 -0.60324,-6.13079 -1.80991,-9.27759 -1.20658,-3.1468 -2.68447,-6.10369 -4.43379,-8.87067 l -5.16601,-8.21962 c -1.69466,-2.71268 -3.14331,-5.65607 -4.34598,-8.82994 -1.20266,-3.173903 -1.80399,-6.25286 -1.80398,-9.236872 h -1.17417 v 20.833782" />
  <polyline
     transform="matrix(3.125,0,0,3.125,210.02219,154.94815)"
     style="font-style:normal;font-weight:400;font-size:medium;font-family:MScore;vector-effect:none;fill:none;stroke:#000000;stroke-width:0.86672097;stroke-linecap:round;stroke-linejoin:bevel;stroke-opacity:1"
     id="polyline38"
     points="0,0 0,-20.3346 " />
  <path
     style="font-style:normal;font-weight:400;font-size:medium;font-family:MScore;vector-effect:non-scaling-stroke;fill:#000000;fill-opacity:1;fill-rule:nonzero;stroke:none;stroke-width:1.00006402"
     id="path44"
     d="m 202.20905,147.50551 c -4.44898,0 -8.61299,1.62878 -12.49221,4.88627 -3.87921,3.2575 -5.81882,6.7593 -5.81882,10.50541 0,2.28025 0.84095,4.11259 2.52285,5.49702 1.6819,1.38442 3.87921,2.07667 6.59195,2.07667 4.44893,0 8.6129,-1.62877 12.49214,-4.88626 3.87925,-3.25748 5.81888,-6.75929 5.81888,-10.50541 0,-2.28024 -0.84096,-4.11258 -2.52287,-5.49701 -1.6819,-1.38445 -3.87924,-2.07669 -6.59192,-2.07669" />
  <polyline
     transform="matrix(3.125,0,0,3.125,321.21248,106.77515)"
     style="font-style:normal;font-weight:400;font-size:medium;font-family:MScore;vector-effect:none;fill:none;stroke:#000000;stroke-width:1.06673002;stroke-linecap:butt;stroke-linejoin:bevel;stroke-opacity:1"
     id="polyline66"
     points="0.533367,0 0.533367,26.6683 " />
  <path
     stroke-miterlimit="10"
     d="m 379.8078,145.16302 c 0,40.74989 -24.5032,76.70567 -64.18773,101.74155 -5.32678,3.72875 1.59804,55.66488 1.59804,55.66488 l -56.19756,-32.22704 c 0,0 -43.14694,9.32187 -66.31845,9.32187 -101.74155,0 -184.040344,-59.9263 -184.040344,-134.50126 0,-74.574962 82.831473,-134.501269 184.040344,-134.501269 102.27423,0 185.1057,59.926307 185.1057,134.501269 z"
     id="path17"
     style="fill:none;stroke:#000000;stroke-width:7.99017429;stroke-miterlimit:10" />
  <metadata
     id="metadata497">
    <rdf:RDF>
      <cc:Work
         rdf:about="" />
    </rdf:RDF>
  </metadata>
  <path
     style="fill:#d35f5f;stroke-width:0.150822"
     d="m 30.21322,66.823112 c -1.223325,-0.382511 -2.548491,-1.503231 -3.147791,-2.662147 -0.342841,-0.662982 -0.466328,-2.255296 -0.22086,-2.847908 0.429141,-1.036037 1.849387,-1.802747 2.955133,-1.595308 1.12852,0.211711 2.037102,1.64872 1.809506,2.861907 -0.214852,1.145261 -1.480956,2.036573 -2.595838,1.827421 -0.49469,-0.0928 -0.51772,-0.07983 -0.364962,0.205602 0.08968,0.167561 0.450476,0.500061 0.801778,0.73889 2.396181,1.629015 5.071453,0.673968 6.144294,-2.193456 0.329984,-0.881962 0.592306,-2.996867 0.598822,-4.827845 l 0.0039,-1.093457 h -8.144368 c -7.138891,0 -8.144369,-0.02793 -8.144369,-0.226232 0,-0.197091 0.731648,-0.226233 5.679901,-0.226233 h 5.679901 l -0.96307,-0.481247 C 28.828123,55.564996 27.186071,53.8602 26.450873,52.301496 l -0.584962,-1.240184 -2.978728,-0.0041 c -2.54539,-0.0035 -2.978727,-0.03701 -2.978727,-0.230326 0,-0.193369 0.427647,-0.226233 2.943896,-0.226233 h 2.943895 L 25.687498,50.1859 c -0.211896,-0.808149 -0.09545,-3.102167 0.218193,-4.298417 l 0.306461,-1.168868 h -3.151848 c -2.701095,0 -3.151848,-0.03235 -3.151848,-0.226232 0,-0.194169 0.465488,-0.226232 3.284464,-0.226232 h 3.284465 l 0.619973,-1.244279 c 0.340985,-0.684353 1.136184,-1.956911 1.767108,-2.827906 l 1.147136,-1.583627 -5.051573,-0.03971 c -4.351844,-0.03421 -5.051573,-0.07077 -5.051573,-0.263938 0,-0.194144 0.707273,-0.224227 5.271849,-0.224227 h 5.271849 l 0.518355,-0.678869 0.518356,-0.678871 -0.34392,-1.114689 C 30.955789,34.996954 30.679293,33.978986 30.53051,33.347881 L 30.259996,32.20042 h -5.17577 c -4.500137,0 -5.17577,-0.02953 -5.17577,-0.226233 0,-0.196675 0.672273,-0.226232 5.145526,-0.226232 h 5.145527 l -0.104798,-0.339349 c -0.05764,-0.186642 -0.142129,-1.399796 -0.187755,-2.695897 -0.09908,-2.814654 0.114255,-4.038063 1.016829,-5.831087 0.675605,-1.342137 1.948738,-2.978288 2.43842,-3.133707 0.272947,-0.08663 0.440303,0.01451 0.89216,0.539151 1.202156,1.395807 2.737451,4.754678 3.157417,6.907702 0.181531,0.930642 0.124597,3.464923 -0.09467,4.213838 l -0.09935,0.339349 h 12.75809 12.758091 l 0.04163,-2.30003 c 0.03397,-1.876807 0.0814,-2.30003 0.25777,-2.30003 0.149466,0 0.27309,0.325663 0.400771,1.055751 0.201943,1.154725 0.464134,1.955871 0.954967,2.917983 l 0.319527,0.626326 H 80.994284 97.279956 V 44.492383 57.236811 H 67.214464 37.148969 l -0.100361,2.208743 c -0.102337,2.252218 -0.353554,3.602343 -0.85213,4.579632 -0.979155,1.919302 -2.580375,3.023001 -4.359497,3.004942 -0.546676,-0.0055 -1.277368,-0.09871 -1.623761,-0.207016 z M 96.375026,53.918735 V 51.053124 H 68.864231 41.353435 l -0.1021,0.74235 c -0.230281,1.674341 -1.612474,3.660428 -3.168872,4.553386 l -0.754108,0.432656 29.523336,0.0014 29.523335,0.0015 z m -60.799972,2.318883 c 0.414435,-0.08289 0.471317,-0.154766 0.471317,-0.595561 0,-0.574206 -0.420768,-3.928155 -0.54259,-4.324995 -0.07211,-0.234894 -0.312686,-0.263938 -2.186236,-0.263938 h -2.105212 l 0.229167,0.443161 c 0.206497,0.399321 0.572315,0.747798 1.73926,1.656812 0.35788,0.278777 0.363783,0.307205 0.116086,0.559026 -0.24208,0.246108 -0.296664,0.247984 -0.754109,0.02591 -0.962103,-0.467061 -1.782511,-1.189892 -2.190843,-1.930274 l -0.413799,-0.750292 -1.319689,-0.0022 c -1.269096,-0.0021 -1.319633,0.01084 -1.318216,0.337175 0.005,1.152144 1.607242,3.111805 3.267417,3.996299 1.476056,0.786402 3.556404,1.139055 5.007447,0.848847 z m 2.396222,-0.802089 c 1.157633,-0.838585 1.845636,-2.171394 1.845636,-3.575391 v -0.807014 h -1.701408 -1.701408 l 0.26101,1.772154 c 0.143557,0.974685 0.264427,2.060601 0.268603,2.413147 0.0092,0.776356 0.18214,0.809529 1.027567,0.197104 z m -8.320121,-6.079148 c -0.0045,-1.844719 0.706939,-3.233355 2.144338,-4.185448 l 0.697697,-0.462136 -1.880834,0.04262 -1.880834,0.04261 -0.480267,0.976207 c -0.54892,1.115751 -0.882164,2.34502 -1.033503,3.81238 l -0.104998,1.018046 h 1.270719 1.27072 l -0.003,-1.244278 z m 5.400398,-0.452465 c -0.47832,-2.258682 -0.405662,-2.129577 -1.133034,-2.013267 -1.67148,0.267282 -2.849262,1.517221 -2.849262,3.023823 v 0.686187 h 2.170807 2.170807 z m 4.546814,1.281984 c -0.162866,-0.672659 -1.094075,-1.96406 -1.768575,-2.452666 -0.60173,-0.435891 -2.057168,-0.981286 -2.210219,-0.828234 -0.06083,0.06083 0.412995,2.463115 0.676867,3.431721 0.06295,0.231091 0.279137,0.263938 1.737127,0.263938 h 1.665225 z m 16.234966,0.06892 c -1.194298,-1.271269 -0.433911,-3.390951 1.752498,-4.88532 l 0.952306,-0.650885 -10.604891,0.0014 -10.604891,0.0014 0.768723,0.440914 c 1.513759,0.868238 2.782499,2.725885 3.102504,4.54258 l 0.157777,0.895835 h 7.400435 7.400436 z M 96.375026,47.659637 V 44.718615 H 82.124406 67.873785 l -0.225115,0.538778 c -0.177666,0.425213 -0.297307,0.528531 -0.567605,0.49017 -0.281571,-0.03996 -0.338534,-0.135795 -0.320252,-0.538777 l 0.02224,-0.490171 h -1.700534 -1.700533 l -0.06684,1.31969 c -0.04805,0.94854 -0.15585,1.489357 -0.383321,1.922976 -0.359849,0.685967 -1.517693,1.854545 -2.301522,2.322861 l -0.527876,0.315389 18.136302,6.03e-4 18.136302,5.25e-4 z m -33.633225,-2.7902 c 0,-0.08295 -0.07188,-0.150822 -0.159723,-0.150822 -0.08785,0 -0.117777,0.06787 -0.06651,0.150822 0.05127,0.08295 0.123143,0.150822 0.159723,0.150822 0.03658,0 0.06651,-0.06787 0.06651,-0.150822 z M 33.784047,44.111555 c 0,-0.231339 -1.235084,-4.278834 -1.341156,-4.395104 -0.09975,-0.109336 -2.377951,2.870729 -2.988133,3.908708 l -0.376811,0.640992 h 2.35305 c 1.506438,0 2.35305,-0.05562 2.35305,-0.154596 z M 62.741801,41.400539 V 38.534928 H 47.986418 c -8.115462,0 -14.791277,0.03589 -14.835146,0.07976 -0.04387,0.04387 0.290091,1.248558 0.742133,2.677084 0.452043,1.428527 0.847779,2.68216 0.879412,2.78585 0.04547,0.149049 2.979884,0.188527 14.01325,0.188527 h 13.955734 z m 4.606395,1.696744 c 0.312706,-1.316581 0.36537,-3.512791 0.09946,-4.147595 l -0.173737,-0.41476 h -1.964414 -1.964414 v 2.865611 2.865612 h 1.862742 1.862744 z m 29.02683,-1.696744 V 38.534928 H 82.345741 68.316455 l 0.11599,0.41476 c 0.259488,0.927888 0.03199,4.07563 -0.370329,5.124064 -0.05953,0.155144 2.674491,0.192399 14.11954,0.192399 h 14.19337 z M 62.741801,35.141442 V 32.20042 H 49.934881 37.12796 l -0.604958,1.244278 c -0.498438,1.02519 -1.565681,2.731392 -2.719646,4.347901 -0.203711,0.285365 0.01924,0.289864 14.365761,0.289864 h 14.572684 z m 3.978729,2.224619 c -0.561527,-0.986428 -1.370774,-2.045311 -2.449381,-3.20496 l -0.91183,-0.980341 -0.0071,2.450852 -0.0071,2.450851 h 1.891627 1.891629 z M 96.375026,35.141442 V 32.20042 h -15.68545 c -8.626998,0 -15.68545,0.03305 -15.68545,0.07343 0,0.04039 0.516424,0.897051 1.147609,1.903694 0.999311,1.593746 1.560654,2.661144 1.914786,3.640978 0.08992,0.248807 0.904021,0.263937 14.201949,0.263937 h 14.106556 z m -62.24293,-2.185265 0.423459,-0.755757 h -1.667738 c -1.534254,0 -1.667738,0.02279 -1.667738,0.284771 0,0.239943 0.590903,2.47334 0.839599,3.173379 0.08423,0.237079 1.350806,-1.414519 2.072418,-2.702393 z m 0.990579,-1.952132 c 0.589991,-1.371474 0.804935,-2.669616 0.738383,-4.459437 -0.05159,-1.387385 -0.126542,-1.801038 -0.457763,-2.526262 -0.217842,-0.476974 -0.461587,-0.867225 -0.541653,-0.867225 -0.275626,0 -1.660495,1.19797 -2.196745,1.900275 -0.673207,0.881673 -1.248002,2.047024 -1.527354,3.096591 -0.218487,0.820888 -0.302987,3.314993 -0.11856,3.49942 0.0553,0.0553 0.929251,0.100548 1.942109,0.100548 h 1.84156 z"
     id="path92"
     transform="scale(3.3333334)" />
  <path
     style="fill:#d4aa00;stroke-width:0.150822"
     d="m 95.599868,92.303611 c -0.467813,-0.275605 -4.584964,-2.641852 -9.149225,-5.258327 l -8.298658,-4.757226 -2.614861,0.508802 c -3.373948,0.656507 -7.528357,1.338995 -10.759231,1.767529 -2.197148,0.291424 -3.232874,0.339578 -7.239438,0.336587 C 52.582573,84.897281 50.618106,84.74438 46.07601,84.008843 23.70594,80.386295 6.4637453,66.892758 2.8084831,50.148194 -0.4537021,35.204295 7.5986778,20.141435 23.829819,10.82548 43.395202,-0.40418329 70.720922,-0.85423219 91.177809,9.7162724 c 3.372221,1.7424976 5.931402,3.3910196 9.144511,5.8905256 1.99649,1.553097 6.07173,5.720857 7.62941,7.802633 8.97514,11.994918 9.48465,26.154123 1.37735,38.276619 -1.68456,2.518858 -3.23725,4.361303 -5.6578,6.713651 -2.40631,2.338508 -3.946724,3.575518 -7.630054,6.127234 l -0.683498,0.473509 -0.109151,1.310332 c -0.177253,2.127914 0.176544,7.268816 0.912148,13.254064 0.212526,1.729222 0.364654,3.165603 0.338062,3.191957 -0.02659,0.02635 -0.431107,-0.17758 -0.898919,-0.453186 z m -1.858204,-4.035248 c -0.132004,-0.596146 -0.52331,-5.074754 -0.688531,-7.88043 -0.243931,-4.142283 0.01478,-6.245033 0.865511,-7.034611 0.23116,-0.214544 0.963248,-0.749588 1.626863,-1.188989 C 103.19444,67.099737 108.85463,60.134967 111.29278,52.787573 116.55017,36.94436 107.92538,20.576049 89.438635,11.312326 77.779773,5.4700605 63.118517,3.1397812 49.156176,4.9097784 30.10518,7.324861 14.185545,16.964994 7.6247636,30.05912 c -1.4028708,2.799876 -2.1861871,5.065384 -2.815007,8.141566 -0.3883996,1.90005 -0.5479275,6.454547 -0.2998684,8.561202 1.1339113,9.629808 6.7499258,18.247342 16.3110208,25.028564 7.450547,5.284312 17.800721,9.09899 28.196123,10.392009 8.357882,1.039587 15.34317,0.588527 26.832077,-1.732616 1.195007,-0.241432 2.314858,-0.437695 2.488557,-0.436143 0.1737,0.0016 3.67537,1.933983 7.781489,4.294287 4.106119,2.360304 7.517866,4.293321 7.58166,4.295592 0.06379,0.0023 0.08218,-0.148576 0.04085,-0.335218 z"
     id="path131"
     transform="scale(3.3333334)" />
  <path
     style="fill:#aad400;stroke-width:0.150822"
     d="m 29.593184,66.429184 c -1.091013,-0.545186 -2.363266,-1.859545 -2.58992,-2.675638 -0.08543,-0.307604 -0.155709,-0.978258 -0.156171,-1.490343 -7.09e-4,-0.78569 0.06099,-1.00455 0.395185,-1.401713 1.216213,-1.445389 3.200137,-1.378484 3.971717,0.133937 0.826098,1.619286 -0.196395,3.328024 -1.992303,3.329437 -0.822178,6.04e-4 -0.887917,0.154884 -0.301643,0.707705 1.096604,1.034033 3.022477,1.414678 4.389712,0.86762 0.816144,-0.326556 1.885797,-1.525038 2.264514,-2.537255 0.390481,-1.043649 0.622918,-2.770866 0.622918,-4.62882 v -1.497303 l -4.10989,-3.01e-4 c -2.260439,-1.51e-4 -5.908437,-0.05107 -8.106663,-0.113116 -3.901584,-0.110121 -3.948281,-0.115077 -1.960681,-0.208107 1.119851,-0.05241 3.698901,-0.105284 5.731222,-0.117489 l 3.69513,-0.02219 -1.055751,-0.559405 c -1.493375,-0.791293 -2.999088,-2.33615 -3.819501,-3.9188 l -0.645008,-1.244279 -2.066162,-0.01637 c -1.136389,-0.009 -2.473381,-0.06118 -2.971092,-0.115952 l -0.90493,-0.09958 1.41827,-0.110281 c 0.780049,-0.06065 2.069574,-0.110296 2.865611,-0.110315 l 1.447341,-3.5e-5 0.01159,-1.922941 c 0.0078,-1.295261 0.09396,-2.225432 0.263938,-2.849641 0.138794,-0.509685 0.252352,-0.967806 0.252352,-1.018046 0,-0.05024 -0.831404,-0.09808 -1.847565,-0.106316 -1.016161,-0.0082 -2.424458,-0.0599 -3.129549,-0.114816 l -1.281984,-0.09985 1.644795,-0.111418 c 0.904637,-0.06128 2.373643,-0.111416 3.264457,-0.111416 h 1.619663 l 0.775079,-1.395101 c 0.426293,-0.767305 1.213337,-2.005927 1.748986,-2.752494 0.535649,-0.746568 0.974527,-1.408298 0.975283,-1.470511 7.54e-4,-0.06221 -1.74627,-0.121988 -3.882281,-0.132829 -2.136012,-0.01084 -4.392681,-0.06774 -5.01482,-0.126435 l -1.131162,-0.106722 1.131162,-0.04484 c 0.622139,-0.02466 3.021503,-0.08654 5.33192,-0.137503 l 4.200757,-0.09266 0.455474,-0.629275 0.455474,-0.629275 L 31.01951,34.81381 C 30.72298,33.749729 30.45935,32.743377 30.433664,32.577474 30.38881,32.287759 30.234949,32.2722 26.54281,32.18403 24.428525,32.13354 22.087829,32.070744 21.341262,32.044484 l -1.357395,-0.04775 1.80986,-0.103941 c 0.995422,-0.05717 3.310848,-0.113144 5.145389,-0.124392 l 3.33553,-0.02045 -0.124002,-0.640992 c -0.221577,-1.145385 -0.160342,-5.239414 0.09291,-6.211717 0.501932,-1.927049 2.489356,-4.98679 3.239118,-4.98679 0.496992,0 1.326514,1.105661 2.263081,3.016433 1.257753,2.566052 1.556857,3.635925 1.626447,5.817646 0.03327,1.042956 -0.0084,2.14584 -0.09264,2.450852 l -0.153124,0.554568 h 12.78883 12.788829 l 0.09426,-0.471318 c 0.05185,-0.259225 0.09426,-1.243336 0.09426,-2.186914 0,-0.943578 0.06106,-1.715596 0.135682,-1.715596 0.07462,0 0.252447,0.525991 0.395159,1.168868 0.142713,0.642877 0.464027,1.626988 0.71403,2.186914 l 0.454552,1.018046 H 80.936002 97.279956 V 44.492383 57.236811 H 67.203908 37.127859 l -0.08579,1.168868 c -0.196471,2.67698 -0.390322,4.222633 -0.605851,4.830704 -0.539632,1.522466 -1.870689,2.980501 -3.15229,3.453012 -0.264124,0.09738 -0.995375,0.182216 -1.625003,0.188527 -0.987806,0.0099 -1.271061,-0.05163 -2.065744,-0.448738 z M 96.375026,53.918331 v -2.866015 l -27.550735,0.03811 -27.550734,0.03811 -0.171596,0.829519 c -0.346983,1.677366 -1.4585,3.251001 -3.000078,4.24737 l -0.895704,0.578922 h 29.584423 29.584424 z m -60.567223,2.322003 c 0.179044,-0.0687 0.237879,-0.303902 0.235805,-0.942635 -0.0029,-0.906287 -0.386981,-3.870252 -0.531835,-4.104629 -0.102377,-0.165652 -4.29215,-0.191851 -4.2907,-0.02683 0.0023,0.262579 0.577971,0.95065 1.28099,1.531122 0.414759,0.34246 0.754108,0.705536 0.754108,0.806833 0,0.750342 -1.92769,-0.406255 -2.755774,-1.653438 l -0.529598,-0.797633 h -1.336041 -1.336042 v 0.458474 c 0,1.589667 2.510308,3.928588 4.930559,4.593933 0.748846,0.205864 3.156953,0.296578 3.578528,0.134803 z m 2.216733,-0.750087 c 1.096007,-0.759533 1.792376,-2.129969 1.792376,-3.527349 v -0.909774 h -1.751234 -1.751233 l 0.08515,0.490171 c 0.07612,0.438176 0.26632,1.868894 0.491245,3.69513 0.09444,0.766777 0.318726,0.816598 1.133698,0.251822 z m -8.312673,-5.83706 c 0,-2.209398 0.86954,-3.742667 2.713533,-4.784803 0.123736,-0.06993 0.191606,-0.149203 0.150821,-0.176162 -0.04078,-0.02696 -0.955827,-0.01508 -2.033426,0.02639 l -1.959272,0.07541 -0.489701,1.143652 c -0.462278,1.079606 -0.833865,2.580168 -0.995973,4.021989 l -0.07207,0.640992 h 1.343044 1.343043 z m 5.731222,0.795053 c 0,-0.294426 -0.607739,-2.943192 -0.75229,-3.278773 -0.202169,-0.469346 -0.933321,-0.446909 -1.950252,0.05985 -1.08122,0.538795 -1.671286,1.446639 -1.671286,2.571352 v 0.799991 h 2.186914 c 1.372668,0 2.186914,-0.05675 2.186914,-0.15242 z m 4.230195,-0.274975 c -0.335828,-1.170967 -1.638463,-2.560986 -2.840678,-3.03124 -1.021969,-0.39975 -1.239273,-0.394926 -1.236332,0.02744 0.0029,0.408256 0.559357,3.091097 0.682548,3.290424 0.04785,0.07742 0.858757,0.140768 1.802018,0.140768 h 1.71502 z m 16.326685,0.08805 c -1.237084,-1.358205 -0.659709,-3.116205 1.558321,-4.744796 0.52828,-0.387891 0.960509,-0.726101 0.960509,-0.751578 0,-0.02548 -4.795339,-0.04632 -10.656309,-0.04632 H 37.206179 l 0.895704,0.578923 c 1.502467,0.97109 2.527623,2.427435 2.93674,4.171959 0.09727,0.41476 0.199393,0.838945 0.226945,0.942635 0.03922,0.147621 1.676697,0.188527 7.546789,0.188527 h 7.496695 z M 96.375026,47.659637 V 44.718615 H 82.065268 67.755511 l -0.187417,0.452465 c -0.114188,0.275671 -0.298131,0.452465 -0.470763,0.452465 -0.214281,0 -0.283346,-0.110287 -0.283346,-0.452465 V 44.718615 H 65.09927 63.384555 l -0.09348,0.565582 c -0.05142,0.311069 -0.09461,0.803125 -0.09599,1.093456 -0.0014,0.290332 -0.0724,0.779552 -0.15783,1.087156 -0.185132,0.666583 -1.387647,2.026832 -2.362837,2.672771 l -0.699122,0.463079 h 18.199866 18.199864 z m -33.633225,-2.7902 c 0,-0.08295 -0.06787,-0.150822 -0.150821,-0.150822 -0.08295,0 -0.150822,0.06787 -0.150822,0.150822 0,0.08295 0.06787,0.150822 0.150822,0.150822 0.08295,0 0.150821,-0.06787 0.150821,-0.150822 z M 33.784047,43.975763 c 0,-0.300669 -1.177487,-4.253327 -1.305634,-4.38283 -0.03982,-0.04024 -0.186521,0.06915 -0.326014,0.243078 -1.042974,1.300458 -2.182365,2.832765 -2.649309,3.562915 l -0.554605,0.867225 h 2.417781 c 2.285995,0 2.417781,-0.01583 2.417781,-0.290388 z M 62.741801,41.400539 V 38.534928 H 47.88587 c -8.170762,0 -14.855931,0.03083 -14.855931,0.06852 0,0.172002 1.54921,5.155848 1.67676,5.394177 0.136214,0.254519 0.871311,0.268529 14.089407,0.268529 h 13.945695 z m 4.64018,1.960682 c 0.225376,-0.946308 0.319205,-3.790516 0.145534,-4.411533 l -0.115989,-0.41476 h -2.033219 -2.033219 v 2.870118 2.870116 l 1.919667,-0.04221 1.919666,-0.04221 z m 28.993045,-1.960682 v -2.865611 l -13.988707,6.5e-5 -13.988706,6.5e-5 -0.006,1.922911 c -0.0033,1.057601 -0.08863,2.2849 -0.189639,2.727329 -0.101004,0.442431 -0.145202,0.866616 -0.09822,0.942635 0.05078,0.08215 5.802542,0.138218 14.178353,0.138218 H 96.375026 Z M 62.741801,35.141442 V 32.20042 H 49.875688 37.009576 l -0.519308,1.081497 c -0.285618,0.594824 -1.040277,1.880367 -1.677016,2.856762 -0.71783,1.100741 -1.090317,1.802756 -0.980341,1.847618 0.09755,0.03979 6.641961,0.07771 14.543129,0.08426 l 14.365761,0.01191 z m 4.373828,2.809552 c 0,-0.407018 -3.398544,-4.845645 -3.710186,-4.845645 -0.03319,0 -0.06036,1.119851 -0.06036,2.488557 v 2.488557 h 1.88527 c 1.036899,0 1.885271,-0.05916 1.885271,-0.131469 z M 96.375026,35.141442 V 32.20042 h -15.68545 c -8.626998,0 -15.68545,0.05659 -15.68545,0.125747 0,0.06916 0.450674,0.866631 1.001499,1.772154 0.550825,0.905524 1.228098,2.11661 1.505052,2.691302 0.276956,0.574693 0.589815,1.099644 0.695244,1.166559 0.105431,0.06691 6.48661,0.122702 14.180398,0.123972 l 13.988707,0.0023 z M 33.048023,34.722926 c 0.690625,-0.930582 1.490132,-2.230413 1.490132,-2.422641 0,-0.05493 -0.755394,-0.09987 -1.678653,-0.09987 h -1.678653 l 0.07474,0.640992 c 0.11543,0.990014 0.710066,2.828344 0.913515,2.824148 0.100177,-0.0021 0.495692,-0.42625 0.878922,-0.942634 z m 2.313407,-4.143839 c 0.363305,-0.995638 0.436986,-1.4619 0.497168,-3.146101 0.07604,-2.128007 -0.126681,-3.288468 -0.697645,-3.993578 -0.365363,-0.451205 -0.640235,-0.333455 -1.753086,0.750984 -1.736535,1.692199 -2.489431,3.497501 -2.489431,5.969178 v 1.588385 h 2.008239 2.008239 z"
     id="path240"
     transform="scale(3.3333334)" />
  <path
     style="fill:#5fbcd3;stroke-width:0.150822"
     d="m 87.193982,87.380128 c -8.21212,-4.715209 -9.000174,-5.135107 -9.501763,-5.062831 -0.300823,0.04335 -1.802542,0.31849 -3.337152,0.61143 -3.726433,0.71133 -9.288501,1.560882 -11.613266,1.773809 -2.818457,0.258144 -10.613157,0.0819 -13.498536,-0.305214 C 35.876677,82.604006 24.949929,78.129774 16.188547,70.862236 14.390463,69.37073 11.29559,66.225217 9.9053711,64.47625 4.3968373,57.546231 1.6625943,49.319778 2.2607137,41.47595 2.6200083,36.764107 3.8764067,32.567443 6.2341792,28.203646 13.251622,15.21567 28.970075,5.6171083 47.584227,2.953008 c 3.596488,-0.5147378 4.995631,-0.6258009 9.056534,-0.7189016 12.302776,-0.2820548 23.420782,2.0962537 33.7014,7.2092363 7.005065,3.4839123 11.978709,7.3810513 16.928229,13.2642483 1.24045,1.474455 3.24687,4.627789 4.24788,6.676075 1.54958,3.170782 2.41155,5.759864 3.05787,9.184917 0.33635,1.782413 0.38337,7.873057 0.0743,9.61893 -0.61357,3.465498 -1.47901,6.112572 -3.03991,9.298012 -2.99524,6.112577 -7.85506,11.524058 -14.588006,16.24393 -1.660487,1.16402 -1.691125,1.196163 -1.793969,1.881966 -0.255103,1.701147 0.136112,7.896431 0.911156,14.429096 0.266112,2.242999 0.278259,2.489942 0.122239,2.484906 -0.06221,-0.002 -4.142781,-2.317391 -9.067928,-5.145295 z m 6.613841,1.114468 c -0.0018,-0.06221 -0.137385,-1.504446 -0.301343,-3.20496 -0.16396,-1.700514 -0.341774,-4.381369 -0.395142,-5.957455 -0.108385,-3.200788 0.05761,-4.730113 0.599762,-5.525553 0.179405,-0.263221 1.253295,-1.12981 2.38642,-1.925754 2.866989,-2.013861 4.7494,-3.609421 7.00947,-5.941337 5.35764,-5.52795 8.52662,-11.668485 9.47862,-18.366735 0.29479,-2.074154 0.29246,-6.075194 -0.005,-8.113587 C 111.6036,32.756227 108.34416,26.452803 103.02828,20.985517 94.434091,12.146549 81.40917,6.3540476 66.338944,4.6688702 63.402137,4.3404718 56.359773,4.2155916 53.315449,4.4379283 37.582702,5.586941 23.631518,11.389014 14.478877,20.589434 9.4223212,25.672387 6.1545433,31.50491 4.8048383,37.856231 4.4845984,39.363188 4.4524555,39.88856 4.4541946,43.587453 c 0.00183,3.896957 0.019841,4.151622 0.4185067,5.918262 1.8866984,8.360682 6.7883677,15.493301 14.8180437,21.562341 6.635884,5.015575 16.335201,8.995671 26.008211,10.672416 3.798737,0.658483 5.841586,0.847846 10.10505,0.93669 6.325627,0.131818 10.666009,-0.324299 19.606813,-2.060415 1.285754,-0.249665 2.50799,-0.454187 2.716079,-0.454492 0.44355,-6.03e-4 2.789257,1.264925 10.028349,5.410579 2.903317,1.662659 5.363595,3.025685 5.467284,3.028948 0.10369,0.0033 0.187072,-0.04497 0.185292,-0.107186 z"
     id="path350"
     transform="scale(3.3333334)" />
  <path
     style="fill:#5fbcd3;stroke-width:0.150822"
     d="m 29.561041,66.27613 c -1.000399,-0.551119 -1.709457,-1.209391 -2.203385,-2.045564 -0.492235,-0.833309 -0.545502,-2.600216 -0.09666,-3.206353 1.072584,-1.448475 3.165084,-1.434463 3.85804,0.02583 0.297154,0.626207 0.323288,1.541821 0.05892,2.064283 -0.279124,0.551622 -1.068916,1.018834 -1.920192,1.135914 -0.861425,0.118477 -0.933495,0.301849 -0.337712,0.85927 0.827638,0.774347 1.360435,0.947415 2.921368,0.948944 1.313441,0.0014 1.501972,-0.03491 1.990549,-0.382209 0.845346,-0.600899 1.586052,-1.639306 1.931794,-2.708213 0.245399,-0.758683 0.334583,-1.511865 0.394441,-3.331153 l 0.07735,-2.350811 -3.525781,-0.09969 c -1.939179,-0.05483 -5.018914,-0.112622 -6.843856,-0.128425 l -3.318076,-0.02873 3.770541,-0.101403 c 2.073797,-0.05577 4.109889,-0.112097 4.524649,-0.125168 l 0.754108,-0.02377 -0.79004,-0.435585 C 28.8669,55.273575 27.623533,54.026369 26.568004,52.091112 25.91481,50.893516 25.992682,50.918911 22.849484,50.878425 l -2.111503,-0.0272 1.960681,-0.108089 c 1.078375,-0.05945 2.206493,-0.115825 2.506929,-0.125283 l 0.546248,-0.01719 0.07715,-2.073797 c 0.04243,-1.140589 0.164531,-2.429833 0.271326,-2.864988 0.106794,-0.435156 0.156088,-0.829275 0.109542,-0.875822 -0.04655,-0.04654 -1.262826,-0.13832 -2.702844,-0.203942 -1.989936,-0.09069 -2.274392,-0.125 -1.185409,-0.143006 0.788043,-0.01303 2.080378,-0.06658 2.871855,-0.119003 l 1.439049,-0.09531 0.504292,-0.921954 c 0.277361,-0.507075 1.038086,-1.719513 1.6905,-2.694307 0.652414,-0.974793 1.186208,-1.829536 1.186208,-1.899428 0,-0.138195 -3.275494,-0.308715 -6.773248,-0.35261 -2.02428,-0.0254 -1.928685,-0.03593 1.192847,-0.13136 1.866418,-0.05706 4.043712,-0.112501 4.838431,-0.123205 l 1.444943,-0.01946 0.462753,-0.644371 0.462753,-0.644371 -0.586518,-2.173713 c -0.322584,-1.195542 -0.659108,-2.218576 -0.74783,-2.273409 -0.175365,-0.108382 -3.72717,-0.277688 -6.854872,-0.326756 -1.078375,-0.01692 -0.01497,-0.06805 2.363111,-0.113618 2.378087,-0.04557 4.355576,-0.116794 4.394422,-0.15827 0.03884,-0.04148 0.02578,-0.753709 -0.02904,-1.58274 -0.05482,-0.82903 -0.05643,-2.356099 -0.0036,-3.393486 0.112735,-2.213119 0.407008,-3.070648 1.748789,-5.096079 0.874844,-1.320585 1.355825,-1.759105 1.759522,-1.604192 0.728976,0.279735 2.741581,4.104691 3.2799,6.233447 0.262968,1.039897 0.30675,1.595848 0.263505,3.346017 l -0.05186,2.098909 12.819839,-0.03864 12.819839,-0.03864 0.03529,-0.754108 c 0.01941,-0.41476 0.07785,-1.331001 0.129871,-2.036092 l 0.09458,-1.281984 0.336196,1.165334 c 0.184909,0.640935 0.498576,1.574143 0.697038,2.073798 L 64.47101,31.74797 H 80.875492 97.279956 V 44.492383 57.236811 H 67.203024 37.12609 l -0.07952,0.41476 c -0.04373,0.228118 -0.123532,1.059522 -0.177332,1.847565 -0.224495,3.288387 -0.690585,4.669667 -2.026649,6.006081 -0.972748,0.973 -1.627812,1.226616 -3.170049,1.227313 -1.14477,4.52e-4 -1.37077,-0.04833 -2.111503,-0.4564 z M 96.375026,53.918735 V 51.053124 H 68.808072 41.241118 l -0.272505,1.057833 c -0.440595,1.710346 -1.561067,3.173882 -3.249841,4.244871 l -0.675705,0.428518 h 29.66598 29.665979 z M 36.017322,55.27613 c 0.0255,-0.539187 -0.0293,-1.557233 -0.121772,-2.262324 -0.286447,-2.184091 -0.0011,-1.960682 -2.504908,-1.960682 -2.617085,0 -2.646007,0.03719 -1.164292,1.497097 0.738754,0.72788 0.938826,1.004503 0.752576,1.04052 -0.139532,0.02698 -0.486526,-0.09484 -0.771096,-0.270712 -0.550122,-0.339994 -2.043503,-1.895298 -2.043503,-2.128238 0,-0.07627 -0.644762,-0.138667 -1.432805,-0.138667 h -1.432806 v 0.533885 c 0,1.538199 2.336387,3.77248 4.742905,4.535629 0.374916,0.118892 1.252739,0.18224 2.270301,0.163837 l 1.659039,-0.03 z m 2.367296,-0.03196 c 0.979745,-0.862406 1.428919,-1.858497 1.430821,-3.173001 l 0.0015,-1.018046 H 38.036766 36.25662 l 0.336326,2.375441 c 0.18498,1.306492 0.341282,2.392408 0.347341,2.413146 0.0061,0.02074 0.171132,0.03771 0.366834,0.03771 0.20333,0 0.665099,-0.272239 1.077497,-0.635246 z m -8.591321,-5.812379 c 0.187605,-2.046124 0.853589,-3.251385 2.407123,-4.356278 0.248855,-0.176989 0.408062,-0.368442 0.353793,-0.425451 -0.05427,-0.05701 -0.985074,-0.05547 -2.068455,0.0034 l -1.969784,0.107079 -0.440855,1.072481 c -0.494898,1.203956 -0.859128,2.60931 -1.010874,3.900387 l -0.101928,0.867225 h 1.361905 1.361904 l 0.107171,-1.168868 z m 5.649788,0.786355 c 0,-0.510509 -0.608721,-2.961253 -0.794699,-3.199502 -0.361904,-0.463618 -1.930414,-0.06841 -2.725369,0.686699 -0.637152,0.605212 -0.85376,1.127426 -0.85376,2.058307 v 0.837008 h 2.186914 2.186914 z m 4.307221,-0.03225 c -0.14206,-0.593328 -1.076474,-1.914158 -1.679605,-2.374188 -0.649328,-0.495266 -1.695235,-0.973965 -2.137446,-0.978282 -0.292567,-0.0029 -0.339041,0.07466 -0.337119,0.56227 0.0019,0.489488 0.08511,0.940389 0.528626,2.865611 0.07577,0.328892 0.134358,0.339348 1.901514,0.339348 h 1.823337 z m 16.293295,-0.04933 c -1.085937,-1.290563 -0.580399,-2.841973 1.455366,-4.466277 0.560905,-0.447538 1.019828,-0.844749 1.019828,-0.882691 0,-0.03794 -4.826485,-0.06899 -10.725522,-0.06899 H 37.067749 l 0.919617,0.614096 c 1.53816,1.027144 2.428058,2.2703 2.965877,4.143228 0.141904,0.494168 0.287634,0.94939 0.323846,1.011604 0.03621,0.06221 3.461357,0.113116 7.61143,0.113116 h 7.545588 z M 96.375026,47.659637 V 44.718615 H 82.007324 67.639622 l -0.14888,0.329593 c -0.215959,0.478089 -0.499968,0.505082 -0.612134,0.05818 l -0.09732,-0.387769 H 65.07335 c -1.949875,0 -1.792766,-0.127273 -1.954858,1.583628 -0.14722,1.553926 -0.984846,2.758957 -2.711731,3.901167 l -0.600593,0.397249 h 18.28443 18.284428 z m -33.633225,-2.7902 c 0,-0.08295 -0.06787,-0.150822 -0.150821,-0.150822 -0.08295,0 -0.150822,0.06787 -0.150822,0.150822 0,0.08295 0.06787,0.150822 0.150822,0.150822 0.08295,0 0.150821,-0.06787 0.150821,-0.150822 z m 4.648477,-1.252447 c 0.223857,-0.910877 0.383778,-3.585361 0.262674,-4.392932 l -0.103342,-0.68913 h -2.10226 -2.102262 l -3.02e-4,2.903317 -3.02e-4,2.903316 1.945097,-0.04587 1.945099,-0.04588 0.155522,-0.632822 z m -33.606231,0.298903 c 0,-0.428748 -1.038898,-4.045442 -1.216757,-4.235869 -0.07553,-0.08087 -0.232383,-0.05014 -0.38329,0.0751 -0.505782,0.419762 -3.226246,4.157471 -3.226246,4.432615 0,0.04312 1.085916,0.07841 2.413147,0.07841 h 2.413146 z M 62.741801,41.400539 V 38.534928 H 47.88587 c -12.927655,0 -14.855931,0.0286 -14.855931,0.220324 0,0.503819 1.54744,5.148987 1.773036,5.322372 0.19214,0.14767 3.246024,0.188527 14.092062,0.188527 h 13.846764 z m 33.633225,0 V 38.534928 H 82.370269 68.36551 l -0.09998,2.30003 c -0.05499,1.265017 -0.14003,2.554542 -0.188978,2.865611 l -0.08899,0.565582 H 82.181291 96.375026 Z M 62.741801,35.141442 V 32.20042 H 49.849092 36.956382 l -0.372149,0.734402 c -0.204683,0.403922 -0.918459,1.637282 -1.586168,2.7408 -0.66771,1.103518 -1.214018,2.096497 -1.214018,2.20662 0,0.165024 2.545263,0.200221 14.478877,0.200221 h 14.478877 z m 4.373828,2.750884 c 0,-0.430098 -3.156258,-4.617663 -3.582014,-4.752436 -0.145643,-0.0461 -0.188527,0.509267 -0.188527,2.441448 v 2.501125 h 1.88527 c 1.416184,0 1.885271,-0.04731 1.885271,-0.190137 z M 96.375026,35.141442 V 32.20042 h -15.68545 c -11.013545,0 -15.68545,0.04793 -15.68545,0.160935 0,0.132084 2.216201,4.151953 2.967028,5.38176 l 0.20718,0.339348 H 82.27668 96.375026 Z m -63.527852,-0.03771 c 0.688053,-0.872789 1.690981,-2.474448 1.690981,-2.700467 0,-0.158178 -0.38259,-0.202849 -1.737322,-0.202849 -1.721741,0 -1.736698,0.003 -1.667728,0.339348 0.03828,0.186642 0.11265,0.60524 0.165273,0.930218 0.147734,0.91234 0.67451,2.199331 0.900205,2.199331 0.111497,0 0.403363,-0.254511 0.648591,-0.565581 z m 2.58814,-4.486944 c 0.351323,-0.972397 0.381572,-1.258183 0.383131,-3.619719 0.0016,-2.378742 -0.02304,-2.610274 -0.34072,-3.20496 -0.507593,-0.950203 -0.879662,-0.884441 -2.133308,0.377054 -1.812183,1.82353 -2.425981,3.349461 -2.425981,6.031104 v 1.556196 l 2.067719,-0.04196 2.067719,-0.04196 z"
     id="path461"
     transform="scale(3.3333334)" />
</svg>
