<?xml version="1.0" encoding="UTF-8" standalone="no"?>
<svg
   xmlns:dc="http://purl.org/dc/elements/1.1/"
   xmlns:cc="http://creativecommons.org/ns#"
   xmlns:rdf="http://www.w3.org/1999/02/22-rdf-syntax-ns#"
   xmlns:svg="http://www.w3.org/2000/svg"
   xmlns="http://www.w3.org/2000/svg"
   id="svg2"
   version="1.2"
   viewBox="0 0 390.46955 316.72544"
   height="95.017632"
   width="117.14086">
  <defs
     id="defs8" />
  <polyline
     transform="matrix(2.3741034,0,0,3.125,65.923531,106.77515)"
     style="font-style:normal;font-weight:400;font-size:medium;font-family:'MS Shell Dlg 2';vector-effect:none;fill:none;stroke:#000000;stroke-width:0.61192942;stroke-linecap:butt;stroke-linejoin:bevel;stroke-opacity:1"
     id="polyline14"
     points="0,0 108.932,0 " />
  <polyline
     transform="matrix(2.3741034,0,0,3.125,65.923531,106.77515)"
     style="font-style:normal;font-weight:400;font-size:medium;font-family:'MS Shell Dlg 2';vector-effect:none;fill:none;stroke:#000000;stroke-width:0.61192942;stroke-linecap:butt;stroke-linejoin:bevel;stroke-opacity:1"
     id="polyline16"
     points="0,6.66709 108.932,6.66709 " />
  <polyline
     transform="matrix(2.3741034,0,0,3.125,65.923531,106.77515)"
     style="font-style:normal;font-weight:400;font-size:medium;font-family:'MS Shell Dlg 2';vector-effect:none;fill:none;stroke:#000000;stroke-width:0.61192942;stroke-linecap:butt;stroke-linejoin:bevel;stroke-opacity:1"
     id="polyline18"
     points="0,13.3342 108.932,13.3342 " />
  <polyline
     transform="matrix(2.3741034,0,0,3.125,65.923531,106.77515)"
     style="font-style:normal;font-weight:400;font-size:medium;font-family:'MS Shell Dlg 2';vector-effect:none;fill:none;stroke:#000000;stroke-width:0.61192942;stroke-linecap:butt;stroke-linejoin:bevel;stroke-opacity:1"
     id="polyline20"
     points="0,20.0013 108.932,20.0013 " />
  <polyline
     transform="matrix(2.3741034,0,0,3.125,65.923531,106.77515)"
     style="font-style:normal;font-weight:400;font-size:medium;font-family:'MS Shell Dlg 2';vector-effect:none;fill:none;stroke:#000000;stroke-width:0.61192942;stroke-linecap:butt;stroke-linejoin:bevel;stroke-opacity:1"
     id="polyline22"
     points="0,26.6683 108.932,26.6683 " />
  <path
     style="font-style:normal;font-weight:400;font-size:medium;font-family:MScore;vector-effect:non-scaling-stroke;fill:#000000;fill-opacity:1;fill-rule:nonzero;stroke:none;stroke-width:1.00006402"
     id="path28"
     d="m 137.96827,169.49791 c -8e-4,-5.85951 -2.01083,-10.98656 -6.02999,-15.38124 -3.98065,-4.39459 -9.17979,-6.61903 -15.5974,-6.67333 -1.5391,-5.37124 -3.46292,-11.50204 -5.77157,-18.39238 4.89882,-6.07649 8.62325,-11.62404 11.17352,-16.64266 2.53676,-5.01852 3.80524,-10.37617 3.80514,-16.072932 10e-5,-4.231871 -0.98496,-8.897769 -2.95509,-13.997796 -1.96962,-5.099926 -4.05366,-9.236791 -6.252,-12.410694 -2.19864,-3.174103 -3.73774,-4.761205 -4.61729,-4.761205 -0.32972,0 -0.96187,0.394026 -1.89633,1.180076 -0.93445,0.78705 -2.02012,1.980127 -3.2569,3.581129 -1.23818,1.600503 -2.43086,3.43152 -3.57793,5.493252 -1.09427,2.061632 -2.01923,4.557391 -2.77478,7.487179 -0.755648,2.929787 -1.133373,5.913778 -1.133373,8.951973 0,5.425547 0.429928,10.322058 1.289683,14.689538 0.84695,4.36748 2.26654,9.61662 4.25887,15.74741 -0.23741,0.32552 -1.37049,1.81752 -3.39912,4.47609 -2.017924,2.65847 -3.222601,4.24537 -3.614126,4.7608 l -3.173783,4.31328 c -1.736082,2.36005 -2.834682,4.02835 -3.295831,5.00502 -0.45996,0.97656 -1.24307,2.52286 -2.349331,4.63879 -1.106501,2.11594 -1.848668,3.87915 -2.226492,5.28984 -0.377824,1.41059 -0.755656,3.0925 -1.133485,5.04563 -0.37783,1.95322 -0.566744,3.87924 -0.566742,5.77816 -0.0021,8.1498 2.835849,15.08481 8.513963,20.80504 2.840412,2.89238 5.962611,5.06122 9.366427,6.50641 3.40382,1.4453 7.13566,2.16784 11.19552,2.16774 1.81591,0 3.90075,-0.18991 6.2547,-0.56973 0.0674,0.87305 0.0999,2.18894 0.0974,3.94775 -1e-4,2.85548 -0.13691,6.04478 -0.41053,9.56791 -0.38303,4.44658 -1.81922,8.27933 -4.30868,11.49814 -2.48946,3.1541 -5.62176,4.7311 -9.3969,4.7311 -2.22874,0 -4.29297,-0.50353 -6.192794,-1.5108 -1.900422,-1.00536 -3.447821,-2.36075 -4.642398,-4.06606 0.868756,0.32532 1.71031,0.48793 2.524762,0.48793 2.17184,0 4.03156,-0.77255 5.57896,-2.31755 1.5474,-1.54499 2.32115,-3.40171 2.32115,-5.57015 0,-2.38525 -0.76015,-4.43169 -2.28035,-6.13929 -1.5204,-1.70781 -3.39362,-2.56167 -5.61976,-2.56177 -2.49756,1e-4 -4.68304,0.85396 -6.55627,2.56177 -1.873219,1.7076 -2.809839,3.75404 -2.809829,6.13929 0,4.6687 1.737481,8.57025 5.212453,11.70445 3.474503,3.2253 7.629166,4.84301 12.464076,4.85301 4.7053,-0.0172 8.63095,-1.93973 11.77696,-5.76747 3.149,-3.76704 4.97081,-8.31243 5.46535,-13.63607 0.27421,-3.73954 0.41132,-7.03685 0.41132,-9.89204 0,-2.25234 -0.0274,-3.89415 -0.0823,-4.92531 3.95695,-1.35639 7.30746,-3.85455 10.05164,-7.49448 2.77298,-3.59584 4.15947,-7.80443 4.15947,-12.62575 m -14.37562,16.6189 c -0.60394,-9.06296 -2.22065,-18.94297 -4.85021,-29.64009 4.20996,0.65114 7.56718,2.52286 10.07184,5.61542 2.51416,3.09251 3.77114,6.56482 3.77114,10.41691 1e-4,3.1941 -0.86915,6.00509 -2.60767,8.43293 -1.73751,2.47196 -3.86584,4.19687 -6.3851,5.17483 m -13.63168,-6.11209 c 0.49243,0 0.93016,-0.18561 1.31319,-0.55663 0.38292,-0.37105 0.57443,-0.78185 0.57443,-1.23242 0,-0.45056 -0.21881,-0.88789 -0.65654,-1.31199 -4.97362,-2.49572 -7.45788,-5.96802 -7.45257,-10.41691 -10e-4,-2.65848 1.01926,-4.96431 3.06189,-6.91749 2.05173,-1.95319 4.80101,-3.03826 8.24793,-3.25527 2.73567,11.01647 4.40438,21.24955 5.00622,30.69916 -1.91492,0.32602 -3.93935,0.48903 -6.07309,0.48903 -5.85277,0 -11.18111,-1.92872 -15.984822,-5.78597 -4.751194,-3.80527 -7.128676,-8.31207 -7.132467,-13.52044 0,-3.36379 0.417727,-6.59195 1.253171,-9.68444 0.835443,-3.0926 2.236823,-6.28 4.204189,-9.56241 1.969926,-3.28241 3.703939,-5.94088 5.201829,-7.97552 l 6.47612,-8.58574 4.64029,15.29977 c -4.39558,0.70535 -7.87,2.64497 -10.42316,5.81888 -2.555566,3.1739 -3.833347,6.74114 -3.833347,10.70174 0,2.54996 0.530133,4.92362 1.590401,7.12094 1.060266,2.19732 2.297246,3.87922 3.710936,5.04569 1.41129,1.14983 2.70037,2.04177 3.86715,2.67584 1.16687,0.63606 1.96733,0.95418 2.40155,0.95418 h 0.007 m 6.2617,-102.712771 c 1.35679,2.387153 2.23865,4.36748 2.64577,5.940881 0.47043,1.5734 0.69985,3.716437 0.68835,6.429211 -1e-4,5.099926 -1.07207,9.982839 -3.21591,14.648739 -2.14374,4.6659 -5.19443,9.54881 -9.15208,14.64884 -2.69348,-8.51805 -4.04016,-14.56744 -4.04016,-18.14827 0,-4.774401 1.16807,-9.250387 3.50422,-13.428055 2.33615,-4.177567 5.53796,-7.541382 9.60562,-10.091346 h -0.0358" />
  <path
     style="font-style:normal;font-weight:400;font-size:medium;font-family:MScore;vector-effect:non-scaling-stroke;fill:#000000;fill-opacity:1;fill-rule:nonzero;stroke:none;stroke-width:1.00006402"
     id="path34"
     d="m 210.16123,111.28504 h 1.17417 c 2.67865,2.76708 4.86531,5.14073 6.55996,7.12096 1.69466,1.98032 3.36198,4.55739 5.00193,7.73129 1.6401,3.17391 2.46016,6.09009 2.46026,8.74866 -1e-4,5.15413 -1.17548,10.47117 -3.52623,15.95082 -0.10931,0.65115 0.0547,1.19368 0.49203,1.62771 0.43733,0.43403 0.92936,0.65104 1.476,0.65104 0.65594,0 1.17537,-0.32552 1.5582,-0.97656 2.35835,-5.96809 3.53752,-11.71905 3.53752,-17.25301 0,-3.03829 -0.60324,-6.13079 -1.80991,-9.27759 -1.20658,-3.1468 -2.68447,-6.10369 -4.43379,-8.87067 l -5.16601,-8.21962 c -1.69466,-2.71268 -3.14331,-5.65607 -4.34598,-8.82994 -1.20266,-3.173903 -1.80399,-6.25286 -1.80398,-9.236872 h -1.17417 v 20.833782" />
  <polyline
     transform="matrix(3.125,0,0,3.125,210.02219,154.94815)"
     style="font-style:normal;font-weight:400;font-size:medium;font-family:MScore;vector-effect:none;fill:none;stroke:#000000;stroke-width:0.86672097;stroke-linecap:round;stroke-linejoin:bevel;stroke-opacity:1"
     id="polyline38"
     points="0,0 0,-20.3346 " />
  <path
     style="font-style:normal;font-weight:400;font-size:medium;font-family:MScore;vector-effect:non-scaling-stroke;fill:#000000;fill-opacity:1;fill-rule:nonzero;stroke:none;stroke-width:1.00006402"
     id="path44"
     d="m 202.20905,147.50551 c -4.44898,0 -8.61299,1.62878 -12.49221,4.88627 -3.87921,3.2575 -5.81882,6.7593 -5.81882,10.50541 0,2.28025 0.84095,4.11259 2.52285,5.49702 1.6819,1.38442 3.87921,2.07667 6.59195,2.07667 4.44893,0 8.6129,-1.62877 12.49214,-4.88626 3.87925,-3.25748 5.81888,-6.75929 5.81888,-10.50541 0,-2.28024 -0.84096,-4.11258 -2.52287,-5.49701 -1.6819,-1.38445 -3.87924,-2.07669 -6.59192,-2.07669" />
  <polyline
     transform="matrix(3.125,0,0,3.125,321.21248,106.77515)"
     style="font-style:normal;font-weight:400;font-size:medium;font-family:MScore;vector-effect:none;fill:none;stroke:#000000;stroke-width:1.06673002;stroke-linecap:butt;stroke-linejoin:bevel;stroke-opacity:1"
     id="polyline66"
     points="0.533367,0 0.533367,26.6683 " />
  <path
     stroke-miterlimit="10"
     d="m 379.8078,145.16302 c 0,40.74989 -24.5032,76.70567 -64.18773,101.74155 -5.32678,3.72875 1.59804,55.66488 1.59804,55.66488 l -56.19756,-32.22704 c 0,0 -43.14694,9.32187 -66.31845,9.32187 -101.74155,0 -184.040344,-59.9263 -184.040344,-134.50126 0,-74.574962 82.831473,-134.501269 184.040344,-134.501269 102.27423,0 185.1057,59.926307 185.1057,134.501269 z"
     id="path17"
     style="fill:none;stroke:#000000;stroke-width:7.99017429;stroke-miterlimit:10" />
  <metadata
     id="metadata497">
    <rdf:RDF>
      <cc:Work
         rdf:about="">
        <dc:title></dc:title>
      </cc:Work>
    </rdf:RDF>
  </metadata>
</svg>
